<?xml version="1.0" standalone="no"?>
<!DOCTYPE svg PUBLIC "-//W3C//DTD SVG 20010904//EN"
 "http://www.w3.org/TR/2001/REC-SVG-20010904/DTD/svg10.dtd">
<svg version="1.0" xmlns="http://www.w3.org/2000/svg"
 width="200.000000pt" height="200.000000pt" viewBox="0 0 200.000000 200.000000"
 preserveAspectRatio="xMidYMid meet">

<g transform="translate(0.000000,200.000000) scale(0.100000,-0.100000)"
fill="#000000" stroke="none">
<path d="M978 1503 l-189 -188 -162 -5 c-175 -6 -197 -12 -248 -67 -53 -57
-59 -80 -59 -243 0 -163 6 -186 59 -243 51 -55 73 -61 248 -67 l162 -5 189
-187 c197 -197 213 -207 252 -168 20 20 20 33 20 670 0 637 0 650 -20 670 -39
39 -55 29 -252 -167z m152 -505 l0 -473 -127 127 c-76 75 -143 134 -165 143
-28 11 -74 15 -177 15 -209 0 -221 10 -221 189 0 181 11 191 221 191 122 0
149 3 183 20 23 11 95 74 161 140 66 66 121 120 122 120 2 0 3 -213 3 -472z"/>
<path d="M1466 1344 c-24 -24 -19 -57 15 -100 18 -22 43 -64 58 -94 22 -47 26
-68 26 -150 0 -81 -4 -103 -26 -150 -14 -30 -42 -75 -62 -98 -21 -24 -37 -50
-37 -58 0 -17 44 -64 60 -64 22 0 89 73 120 131 43 81 60 148 60 239 0 123
-42 238 -117 320 -38 43 -71 51 -97 24z"/>
</g>
</svg>
