<?xml version="1.0" standalone="no"?>
<!DOCTYPE svg PUBLIC "-//W3C//DTD SVG 20010904//EN"
 "http://www.w3.org/TR/2001/REC-SVG-20010904/DTD/svg10.dtd">
<svg version="1.0" xmlns="http://www.w3.org/2000/svg"
 width="256.000000pt" height="256.000000pt" viewBox="0 0 256.000000 256.000000"
 preserveAspectRatio="xMidYMid meet">

<g transform="translate(0.000000,256.000000) scale(0.100000,-0.100000)"
fill="#000000" stroke="none">
<path d="M1165 2468 c-90 -16 -207 -81 -279 -154 -76 -75 -138 -190 -155 -288
-15 -79 -15 -773 0 -852 17 -98 79 -213 155 -288 270 -270 729 -195 893 147
22 45 44 109 50 141 7 35 11 210 11 426 0 216 -4 391 -11 426 -6 32 -28 96
-50 141 -108 226 -359 349 -614 301z m279 -186 c91 -42 149 -100 194 -190 l37
-76 0 -415 0 -416 -32 -67 c-44 -93 -100 -151 -191 -196 -72 -35 -81 -37 -172
-37 -91 0 -100 2 -172 37 -91 45 -147 103 -191 196 l-32 67 0 415 0 415 32 67
c40 85 97 147 172 186 78 42 122 52 213 48 61 -3 92 -11 142 -34z"/>
<path d="M425 1335 c-30 -29 -32 -79 -10 -210 63 -358 352 -647 710 -710 479
-83 937 235 1020 710 22 131 20 181 -10 210 -31 32 -78 33 -109 2 -19 -19 -24
-38 -29 -110 -14 -177 -83 -324 -211 -453 -90 -90 -175 -143 -294 -182 -67
-22 -94 -26 -212 -26 -118 0 -145 4 -212 26 -119 39 -204 92 -294 182 -128
129 -199 281 -211 456 -5 70 -10 88 -29 107 -31 31 -78 30 -109 -2z"/>
<path d="M905 215 c-16 -15 -25 -36 -25 -55 0 -19 9 -40 25 -55 l24 -25 351 0
351 0 24 25 c16 15 25 36 25 55 0 19 -9 40 -25 55 l-24 25 -351 0 -351 0 -24
-25z"/>
</g>
</svg>
